<svg xmlns="http://www.w3.org/2000/svg" width="690.5906982421875" height="296.47955322265625"
     viewBox="-324.5912170410156 -47.606109619140625 690.5906982421875 296.47955322265625">
    <style>svg { background-color: white; }</style>
    <title>Neo4j Graph Visualization</title>
    <desc>Created using Neo4j (http://www.neo4j.com/)</desc>
    <g class="layer relationships">
        <g class="relationship" transform="translate(-135.4611538936437 219.87346174905562) rotate(212.14035642166817)">
            <path class="outline" fill="#A5ABB6" stroke="none"
                  d="M 25 0.5 L 66.72003871575784 0.5 L 66.72003871575784 -0.5 L 25 -0.5 Z M 115.39191371575784 0.5 L 157.11195243151568 0.5 L 157.11195243151568 3.5 L 164.11195243151568 0 L 157.11195243151568 -3.5 L 157.11195243151568 -0.5 L 115.39191371575784 -0.5 Z"/>
            <text text-anchor="middle" pointer-events="none" font-size="8px" fill="#000000" x="91.05597621575784" y="3"
                  transform="rotate(180 91.05597621575784 0)" font-family="sans-serif">REVIEWED
            </text>
        </g>
        <g class="relationship" transform="translate(-135.4611538936437 219.87346174905562) rotate(359.9428603588848)">
            <path class="outline" fill="#A5ABB6" stroke="none"
                  d="M 25 0.5 L 64.85840545699205 0.5 L 64.85840545699205 -0.5 L 25 -0.5 Z M 113.53028045699205 0.5 L 153.3886859139841 0.5 L 153.3886859139841 3.5 L 160.3886859139841 0 L 153.3886859139841 -3.5 L 153.3886859139841 -0.5 L 113.53028045699205 -0.5 Z"/>
            <text text-anchor="middle" pointer-events="none" font-size="8px" fill="#000000" x="89.19434295699205" y="3"
                  font-family="sans-serif">REVIEWED
            </text>
        </g>
        <g class="relationship" transform="translate(226.44533741617948 211.01679590926412) rotate(537.1874954160764)">
            <path class="outline" fill="#A5ABB6" stroke="none"
                  d="M 25 0.5 L 62.08413912086118 0.5 L 62.08413912086118 -0.5 L 25 -0.5 Z M 107.64663912086118 0.5 L 144.73077824172236 0.5 L 144.73077824172236 3.5 L 151.73077824172236 0 L 144.73077824172236 -3.5 L 144.73077824172236 -0.5 L 107.64663912086118 -0.5 Z"/>
            <text text-anchor="middle" pointer-events="none" font-size="8px" fill="#000000" x="84.86538912086118" y="3"
                  transform="rotate(180 84.86538912086118 0)" font-family="sans-serif">ACTED_IN
            </text>
        </g>
        <g class="relationship" transform="translate(226.44533741617948 211.01679590926412) rotate(314.29022007498605)">
            <path class="outline" fill="#A5ABB6" stroke="none"
                  d="M 25 0.5 L 52.87904102195091 0.5 L 52.87904102195091 -0.5 L 25 -0.5 Z M 98.44154102195091 0.5 L 126.32058204390182 0.5 L 126.32058204390182 3.5 L 133.32058204390182 0 L 126.32058204390182 -3.5 L 126.32058204390182 -0.5 L 98.44154102195091 -0.5 Z"/>
            <text text-anchor="middle" pointer-events="none" font-size="8px" fill="#000000" x="75.66029102195091" y="3"
                  font-family="sans-serif">ACTED_IN
            </text>
        </g>
        <g class="relationship" transform="translate(-146.6819451231628 -1.577792891030337) rotate(500.93956855165214)">
            <path class="outline" fill="#A5ABB6" stroke="none"
                  d="M 25 0.5 L 69.60591224635239 0.5 L 69.60591224635239 -0.5 L 25 -0.5 Z M 115.16841224635239 0.5 L 159.77432449270478 0.5 L 159.77432449270478 3.5 L 166.77432449270478 0 L 159.77432449270478 -3.5 L 159.77432449270478 -0.5 L 115.16841224635239 -0.5 Z"/>
            <text text-anchor="middle" pointer-events="none" font-size="8px" fill="#000000" x="92.38716224635239" y="3"
                  transform="rotate(180 92.38716224635239 0)" font-family="sans-serif">ACTED_IN
            </text>
        </g>
        <g class="relationship" transform="translate(-146.6819451231628 -1.577792891030337) rotate(355.21621987735693)">
            <path class="outline" fill="#A5ABB6" stroke="none"
                  d="M 25 0.5 L 75.81218665718475 0.5 L 75.81218665718475 -0.5 L 25 -0.5 Z M 121.37468665718475 0.5 L 172.1868733143695 0.5 L 172.1868733143695 3.5 L 179.1868733143695 0 L 172.1868733143695 -3.5 L 172.1868733143695 -0.5 L 121.37468665718475 -0.5 Z"/>
            <text text-anchor="middle" pointer-events="none" font-size="8px" fill="#000000" x="98.59343665718475" y="3"
                  font-family="sans-serif">ACTED_IN
            </text>
        </g>
        <g class="relationship" transform="translate(228.93547376894944 0.7636033572912782) rotate(186.42002138616084)">
            <path class="outline" fill="#A5ABB6" stroke="none"
                  d="M 25 0.5 L 60.332829446493704 0.5 L 60.332829446493704 -0.5 L 25 -0.5 Z M 105.8953294464937 0.5 L 141.2281588929874 0.5 L 141.2281588929874 3.5 L 148.2281588929874 0 L 141.2281588929874 -3.5 L 141.2281588929874 -0.5 L 105.8953294464937 -0.5 Z"/>
            <text text-anchor="middle" pointer-events="none" font-size="8px" fill="#000000" x="83.1140794464937" y="3"
                  transform="rotate(180 83.1140794464937 0)" font-family="sans-serif">ACTED_IN
            </text>
        </g>
        <g class="relationship" transform="translate(228.93547376894944 0.7636033572912782) rotate(401.88975189334434)">
            <path class="outline" fill="#A5ABB6" stroke="none"
                  d="M 25 0.5 L 46.30038470065085 0.5 L 46.30038470065085 -0.5 L 25 -0.5 Z M 91.86288470065085 0.5 L 113.1632694013017 0.5 L 113.1632694013017 3.5 L 120.1632694013017 0 L 113.1632694013017 -3.5 L 113.1632694013017 -0.5 L 91.86288470065085 -0.5 Z"/>
            <text text-anchor="middle" pointer-events="none" font-size="8px" fill="#000000" x="69.08163470065085" y="3"
                  font-family="sans-serif">ACTED_IN
            </text>
        </g>
        <g class="relationship" transform="translate(206.76022728753563 154.38552363086797) rotate(517.3938144132246)">
            <path class="outline" fill="#A5ABB6" stroke="none"
                  d="M 25 0.5 L 58.661395607055454 0.5 L 58.661395607055454 -0.5 L 25 -0.5 Z M 104.22389560705545 0.5 L 137.8852912141109 0.5 L 137.8852912141109 3.5 L 144.8852912141109 0 L 137.8852912141109 -3.5 L 137.8852912141109 -0.5 L 104.22389560705545 -0.5 Z"/>
            <text text-anchor="middle" pointer-events="none" font-size="8px" fill="#000000" x="81.44264560705545" y="3"
                  transform="rotate(180 81.44264560705545 0)" font-family="sans-serif">ACTED_IN
            </text>
        </g>
        <g class="relationship" transform="translate(206.76022728753563 154.38552363086797) rotate(336.47527578562494)">
            <path class="outline" fill="#A5ABB6" stroke="none"
                  d="M 25 0.5 L 44.741215827717056 0.5 L 44.741215827717056 -0.5 L 25 -0.5 Z M 90.30371582771706 0.5 L 110.04493165543411 0.5 L 110.04493165543411 3.5 L 117.04493165543411 0 L 110.04493165543411 -3.5 L 110.04493165543411 -0.5 L 90.30371582771706 -0.5 Z"/>
            <text text-anchor="middle" pointer-events="none" font-size="8px" fill="#000000" x="67.52246582771706" y="3"
                  font-family="sans-serif">ACTED_IN
            </text>
        </g>
        <g class="relationship" transform="translate(-143.285272799964 58.317766588790676) rotate(518.1899374601605)">
            <path class="outline" fill="#A5ABB6" stroke="none"
                  d="M 25 0.5 L 55.7429641444964 0.5 L 55.7429641444964 -0.5 L 25 -0.5 Z M 101.3054641444964 0.5 L 132.0484282889928 0.5 L 132.0484282889928 3.5 L 139.0484282889928 0 L 132.0484282889928 -3.5 L 132.0484282889928 -0.5 L 101.3054641444964 -0.5 Z"/>
            <text text-anchor="middle" pointer-events="none" font-size="8px" fill="#000000" x="78.5242141444964" y="3"
                  transform="rotate(180 78.5242141444964 0)" font-family="sans-serif">ACTED_IN
            </text>
        </g>
        <g class="relationship" transform="translate(-143.285272799964 58.317766588790676) rotate(366.9958559241842)">
            <path class="outline" fill="#A5ABB6" stroke="none"
                  d="M 25 0.5 L 40.33262387626945 0.5 L 40.33262387626945 -0.5 L 25 -0.5 Z M 85.89512387626945 0.5 L 101.2277477525389 0.5 L 101.2277477525389 3.5 L 108.2277477525389 0 L 101.2277477525389 -3.5 L 101.2277477525389 -0.5 L 85.89512387626945 -0.5 Z"/>
            <text text-anchor="middle" pointer-events="none" font-size="8px" fill="#000000" x="63.11387387626945" y="3"
                  font-family="sans-serif">ACTED_IN
            </text>
        </g>
        <g class="relationship" transform="translate(148.21837015836965 89.2555876677836) rotate(185.27723681851978)">
            <path class="outline" fill="#A5ABB6" stroke="none"
                  d="M 25 0.5 L 53.02755740485061 0.5 L 53.02755740485061 -0.5 L 25 -0.5 Z M 99.91818240485061 0.5 L 127.94573980970122 0.5 L 127.94573980970122 3.5 L 134.94573980970122 0 L 127.94573980970122 -3.5 L 127.94573980970122 -0.5 L 99.91818240485061 -0.5 Z"/>
            <text text-anchor="middle" pointer-events="none" font-size="8px" fill="#000000" x="76.47286990485061" y="3"
                  transform="rotate(180 76.47286990485061 0)" font-family="sans-serif">DIRECTED
            </text>
        </g>
        <g class="relationship" transform="translate(148.21837015836965 89.2555876677836) rotate(362.5578815423257)">
            <path class="outline" fill="#A5ABB6" stroke="none"
                  d="M 25 0.5 L 68.20345979218388 0.5 L 68.20345979218388 -0.5 L 25 -0.5 Z M 113.76595979218388 0.5 L 156.96941958436776 0.5 L 156.96941958436776 3.5 L 163.96941958436776 0 L 156.96941958436776 -3.5 L 156.96941958436776 -0.5 L 113.76595979218388 -0.5 Z"/>
            <text text-anchor="middle" pointer-events="none" font-size="8px" fill="#000000" x="90.98470979218388" y="3"
                  font-family="sans-serif">ACTED_IN
            </text>
        </g>
        <g class="relationship" transform="translate(-113.36720247244624 110.09471684201596) rotate(537.1184916613772)">
            <path class="outline" fill="#A5ABB6" stroke="none"
                  d="M 25 0.5 L 64.2820368593264 0.5 L 64.2820368593264 -0.5 L 25 -0.5 Z M 111.1726618593264 0.5 L 150.4546987186528 0.5 L 150.4546987186528 3.5 L 157.4546987186528 0 L 150.4546987186528 -3.5 L 150.4546987186528 -0.5 L 111.1726618593264 -0.5 Z"/>
            <text text-anchor="middle" pointer-events="none" font-size="8px" fill="#000000" x="87.7273493593264" y="3"
                  transform="rotate(180 87.7273493593264 0)" font-family="sans-serif">DIRECTED
            </text>
        </g>
        <g class="relationship" transform="translate(-113.36720247244624 110.09471684201596) rotate(340.8403069614458)">
            <path class="outline" fill="#A5ABB6" stroke="none"
                  d="M 24.018736134675446,6.953439040707552 L 24.277555179777966,5.987513214418485 A 108.33644411042938 108.33644411042938 0 0 0 32.912391010043095,7.926983553687805 L 32.733275853148896,8.910811669046765 A 109.33644411042938 109.33644411042938 0 0 1 24.018736134675446,6.953439040707552 Z M 68.50506834452764,9.473979562382453 L 68.35701178130216,8.485000667720968 A 108.33644411042938 108.33644411042938 0 0 0 77.04862072388475,6.818306634086142 L 76.36376723623196,3.897523228824838 L 83.97792425076992,5.707112397106529 L 77.9617587074218,10.71268450776788 L 77.276905219769,7.791901102506577 A 109.33644411042938 109.33644411042938 0 0 1 68.50506834452764,9.473979562382453"/>
            <text text-anchor="middle" pointer-events="none" font-size="8px" fill="#000000" x="50.603852130469974"
                  y="13.165502811508773" font-family="sans-serif">WROTE
            </text>
        </g>
        <g class="relationship"
           transform="translate(-145.37429014768009 160.61302091846545) rotate(195.38920822047362)">
            <path class="outline" fill="#A5ABB6" stroke="none"
                  d="M 25 0.5 L 50.95627819229878 0.5 L 50.95627819229878 -0.5 L 25 -0.5 Z M 97.84690319229878 0.5 L 123.80318138459756 0.5 L 123.80318138459756 3.5 L 130.80318138459756 0 L 123.80318138459756 -3.5 L 123.80318138459756 -0.5 L 97.84690319229878 -0.5 Z"/>
            <text text-anchor="middle" pointer-events="none" font-size="8px" fill="#000000" x="74.40159069229878" y="3"
                  transform="rotate(180 74.40159069229878 0)" font-family="sans-serif">DIRECTED
            </text>
        </g>
        <g class="relationship" transform="translate(-145.37429014768009 160.61302091846545) rotate(327.3503505768882)">
            <path class="outline" fill="#A5ABB6" stroke="none"
                  d="M 24.018736134675446,6.953439040707552 L 24.277555179777966,5.987513214418485 A 209.56221764540982 209.56221764540982 0 0 0 58.420007762548,12.162369574259884 L 58.32411146643328,13.157760904537326 A 210.56221764540982 210.56221764540982 0 0 1 24.018736134675446,6.953439040707552 Z M 94.13725708439574,13.547934161298741 L 94.06306994380259,12.550689824052057 A 209.56221764540982 209.56221764540982 0 0 0 128.33194882682116,7.1211539753473225 L 127.61880929509343,4.207147796855736 L 135.25015316525617,5.9428294310645216 L 129.2828015357915,11.006495546669438 L 128.56966200406376,8.092489368177851 A 210.56221764540982 210.56221764540982 0 0 1 94.13725708439574,13.547934161298741"/>
            <text text-anchor="middle" pointer-events="none" font-size="8px" fill="#000000" x="76.22782050056313"
                  y="16.615707131807426" font-family="sans-serif">WROTE
            </text>
        </g>
        <g class="relationship" transform="translate(-113.36720247244624 110.09471684201596) rotate(340.8403069614458)">
            <path class="outline" fill="#A5ABB6" stroke="none"
                  d="M 24.018736134675446,-6.953439040707552 L 24.277555179777966,-5.987513214418485 A 108.33644411042938 108.33644411042938 0 0 1 25.133610921499706,-6.213147890252088 L 24.88269370249782,-7.181156438359167 A 109.33644411042938 109.33644411042938 0 0 0 24.018736134675446,-6.953439040707552 Z M 76.40620752170051,-7.992309213043455 L 76.18588649769566,-7.016881795763496 A 108.33644411042938 108.33644411042938 0 0 1 77.04862072388475,-6.818306634086142 L 76.36376723623196,-3.897523228824838 L 83.97792425076992,-5.707112397106529 L 77.9617587074218,-10.71268450776788 L 77.276905219769,-7.791901102506577 A 109.33644411042938 109.33644411042938 0 0 0 76.40620752170051,-7.992309213043455"/>
            <text text-anchor="middle" pointer-events="none" font-size="8px" fill="#000000" x="50.60385213046997"
                  y="-7.165502811508773" font-family="sans-serif">PRODUCED
            </text>
        </g>
        <g class="relationship" transform="translate(-145.37429014768009 160.61302091846545) rotate(327.3503505768882)">
            <path class="outline" fill="#A5ABB6" stroke="none"
                  d="M 24.018736134675446,-6.953439040707552 L 24.277555179777966,-5.987513214418485 A 209.56221764540982 209.56221764540982 0 0 1 50.48846151767079,-11.245434549737723 L 50.3547170524825,-12.236450401291819 A 210.56221764540982 210.56221764540982 0 0 0 24.018736134675446,-6.953439040707552 Z M 102.1248322878688,-12.800469956563006 L 102.01271063417641,-11.806775468919398 A 209.56221764540982 209.56221764540982 0 0 1 128.33194882682116,-7.1211539753473225 L 127.61880929509343,-4.207147796855736 L 135.25015316525617,-5.9428294310645216 L 129.2828015357915,-11.006495546669438 L 128.56966200406376,-8.092489368177851 A 210.56221764540982 210.56221764540982 0 0 0 102.1248322878688,-12.800469956563006"/>
            <text text-anchor="middle" pointer-events="none" font-size="8px" fill="#000000" x="76.22782050056307"
                  y="-10.615707131807426" font-family="sans-serif">PRODUCED
            </text>
        </g>
        <g class="relationship" transform="translate(-113.36720247244624 110.09471684201596) rotate(375.2622404338025)">
            <path class="outline" fill="#A5ABB6" stroke="none"
                  d="M 25 0.5 L 32.41082820228066 0.5 L 32.41082820228066 -0.5 L 25 -0.5 Z M 84.19207820228067 0.5 L 91.60290640456132 0.5 L 91.60290640456132 3.5 L 98.60290640456132 0 L 91.60290640456132 -3.5 L 91.60290640456132 -0.5 L 84.19207820228067 -0.5 Z"/>
            <text text-anchor="middle" pointer-events="none" font-size="8px" fill="#000000" x="58.30145320228066" y="3"
                  font-family="sans-serif">PRODUCED
            </text>
        </g>
        <g class="relationship" transform="translate(148.21837015836965 89.2555876677836) rotate(519.444739686452)">
            <path class="outline" fill="#A5ABB6" stroke="none"
                  d="M 25 0.5 L 49.064960307194994 0.5 L 49.064960307194994 -0.5 L 25 -0.5 Z M 95.955585307195 0.5 L 120.02054561438999 0.5 L 120.02054561438999 3.5 L 127.02054561438999 0 L 120.02054561438999 -3.5 L 120.02054561438999 -0.5 L 95.955585307195 -0.5 Z"/>
            <text text-anchor="middle" pointer-events="none" font-size="8px" fill="#000000" x="72.510272807195" y="3"
                  transform="rotate(180 72.510272807195 0)" font-family="sans-serif">DIRECTED
            </text>
        </g>
        <g class="relationship" transform="translate(-145.37429014768009 160.61302091846545) rotate(353.2202233404082)">
            <path class="outline" fill="#A5ABB6" stroke="none"
                  d="M 25 0.5 L 46.767257218630235 0.5 L 46.767257218630235 -0.5 L 25 -0.5 Z M 98.54850721863023 0.5 L 120.31576443726047 0.5 L 120.31576443726047 3.5 L 127.31576443726047 0 L 120.31576443726047 -3.5 L 120.31576443726047 -0.5 L 98.54850721863023 -0.5 Z"/>
            <text text-anchor="middle" pointer-events="none" font-size="8px" fill="#000000" x="72.65788221863023" y="3"
                  font-family="sans-serif">PRODUCED
            </text>
        </g>
    </g>
    <g class="layer nodes">
        <g class="node" transform="translate(-295.5912115921949,119.266825914641)">
            <circle class="outline" cx="0" cy="0" r="25" fill="#4C8EDA" stroke="#2870c2" stroke-width="2px"/>
            <text text-anchor="middle" pointer-events="none" font-family="sans-serif" dy="1.5625" font-size="25"
                  fill="#FFFFFF"/>
            <text text-anchor="middle" pointer-events="none" font-family="sans-serif" dy="1.5625" font-size="25"
                  fill="#FFFFFF"/>
            <text text-anchor="middle" pointer-events="none" y="0" font-size="10px" fill="#FFFFFF"
                  font-family="sans-serif">Cloud
            </text>
            <text text-anchor="middle" pointer-events="none" y="10" font-size="10px" fill="#FFFFFF"
                  font-family="sans-serif">Atlas
            </text>
        </g>
        <g class="node" transform="translate(-135.4611538936437,219.87346174905562)">
            <circle class="outline" cx="0" cy="0" r="25" fill="#C990C0" stroke="#b261a5" stroke-width="2px"/>
            <text text-anchor="middle" pointer-events="none" font-family="sans-serif" dy="1.5625" font-size="25"
                  fill="#FFFFFF"/>
            <text text-anchor="middle" pointer-events="none" font-family="sans-serif" dy="1.5625" font-size="25"
                  fill="#FFFFFF"/>
            <text text-anchor="middle" pointer-events="none" y="0" font-size="10px" fill="#FFFFFF"
                  font-family="sans-serif">Jessica
            </text>
            <text text-anchor="middle" pointer-events="none" y="10" font-size="10px" fill="#FFFFFF"
                  font-family="sans-serif">Thomp…
            </text>
        </g>
        <g class="node" transform="translate(49.927439830524804,219.68857830189643)">
            <circle class="outline" cx="0" cy="0" r="25" fill="#4C8EDA" stroke="#2870c2" stroke-width="2px"/>
            <text text-anchor="middle" pointer-events="none" font-family="sans-serif" dy="1.5625" font-size="25"
                  fill="#FFFFFF"/>
            <text text-anchor="middle" pointer-events="none" font-family="sans-serif" dy="1.5625" font-size="25"
                  fill="#FFFFFF"/>
            <text text-anchor="middle" pointer-events="none" y="0" font-size="10px" fill="#FFFFFF"
                  font-family="sans-serif">Jerry
            </text>
            <text text-anchor="middle" pointer-events="none" y="10" font-size="10px" fill="#FFFFFF"
                  font-family="sans-serif">Maguire
            </text>
        </g>
        <g class="node" transform="translate(226.44533741617948,211.01679590926412)">
            <circle class="outline" cx="0" cy="0" r="25" fill="#C990C0" stroke="#b261a5" stroke-width="2px"/>
            <text text-anchor="middle" pointer-events="none" font-family="sans-serif" dy="1.5625" font-size="25"
                  fill="#FFFFFF"/>
            <text text-anchor="middle" pointer-events="none" font-family="sans-serif" dy="1.5625" font-size="25"
                  fill="#FFFFFF"/>
            <text text-anchor="middle" pointer-events="none" y="0" font-size="10px" fill="#FFFFFF"
                  font-family="sans-serif">Tom
            </text>
            <text text-anchor="middle" pointer-events="none" y="10" font-size="10px" fill="#FFFFFF"
                  font-family="sans-serif">Cruise
            </text>
        </g>
        <g class="node" transform="translate(336.9995093943955,97.68903339305237)">
            <circle class="outline" cx="0" cy="0" r="25" fill="#4C8EDA" stroke="#2870c2" stroke-width="2px"/>
            <text text-anchor="middle" pointer-events="none" font-family="sans-serif" dy="1.5625" font-size="25"
                  fill="#FFFFFF"/>
            <text text-anchor="middle" pointer-events="none" font-family="sans-serif" dy="1.5625" font-size="25"
                  fill="#FFFFFF"/>
            <text text-anchor="middle" pointer-events="none" font-family="sans-serif" dy="1.5625" font-size="25"
                  fill="#FFFFFF"/>
            <text text-anchor="middle" pointer-events="none" y="-5" font-size="10px" fill="#FFFFFF"
                  font-family="sans-serif">A Few
            </text>
            <text text-anchor="middle" pointer-events="none" y="5" font-size="10px" fill="#FFFFFF"
                  font-family="sans-serif">Good
            </text>
            <text text-anchor="middle" pointer-events="none" y="15" font-size="10px" fill="#FFFFFF"
                  font-family="sans-serif">Men
            </text>
        </g>
        <g class="node" transform="translate(-146.6819451231628,-1.577792891030337)">
            <circle class="outline" cx="0" cy="0" r="25" fill="#C990C0" stroke="#b261a5" stroke-width="2px"/>
            <text text-anchor="middle" pointer-events="none" font-family="sans-serif" dy="1.5625" font-size="25"
                  fill="#FFFFFF"/>
            <text text-anchor="middle" pointer-events="none" font-family="sans-serif" dy="1.5625" font-size="25"
                  fill="#FFFFFF"/>
            <text text-anchor="middle" pointer-events="none" y="0" font-size="10px" fill="#FFFFFF"
                  font-family="sans-serif">Tom
            </text>
            <text text-anchor="middle" pointer-events="none" y="10" font-size="10px" fill="#FFFFFF"
                  font-family="sans-serif">Hanks
            </text>
        </g>
        <g class="node" transform="translate(56.79364479075388,-18.606108811343802)">
            <circle class="outline" cx="0" cy="0" r="25" fill="#4C8EDA" stroke="#2870c2" stroke-width="2px"/>
            <text text-anchor="middle" pointer-events="none" font-family="sans-serif" dy="1.5625" font-size="25"
                  fill="#FFFFFF"/>
            <text text-anchor="middle" pointer-events="none" y="5" font-size="10px" fill="#FFFFFF"
                  font-family="sans-serif">Apollo 13
            </text>
        </g>
        <g class="node" transform="translate(228.93547376894944,0.7636033572912782)">
            <circle class="outline" cx="0" cy="0" r="25" fill="#C990C0" stroke="#b261a5" stroke-width="2px"/>
            <text text-anchor="middle" pointer-events="none" font-family="sans-serif" dy="1.5625" font-size="25"
                  fill="#FFFFFF"/>
            <text text-anchor="middle" pointer-events="none" font-family="sans-serif" dy="1.5625" font-size="25"
                  fill="#FFFFFF"/>
            <text text-anchor="middle" pointer-events="none" y="0" font-size="10px" fill="#FFFFFF"
                  font-family="sans-serif">Kevin
            </text>
            <text text-anchor="middle" pointer-events="none" y="10" font-size="10px" fill="#FFFFFF"
                  font-family="sans-serif">Bacon
            </text>
        </g>
        <g class="node" transform="translate(206.76022728753563,154.38552363086797)">
            <circle class="outline" cx="0" cy="0" r="25" fill="#C990C0" stroke="#b261a5" stroke-width="2px"/>
            <text text-anchor="middle" pointer-events="none" font-family="sans-serif" dy="1.5625" font-size="25"
                  fill="#FFFFFF"/>
            <text text-anchor="middle" pointer-events="none" font-family="sans-serif" dy="1.5625" font-size="25"
                  fill="#FFFFFF"/>
            <text text-anchor="middle" pointer-events="none" font-family="sans-serif" dy="1.5625" font-size="25"
                  fill="#FFFFFF"/>
            <text text-anchor="middle" pointer-events="none" y="-5" font-size="10px" fill="#FFFFFF"
                  font-family="sans-serif">Cuba
            </text>
            <text text-anchor="middle" pointer-events="none" y="5" font-size="10px" fill="#FFFFFF"
                  font-family="sans-serif">Gooding
            </text>
            <text text-anchor="middle" pointer-events="none" y="15" font-size="10px" fill="#FFFFFF"
                  font-family="sans-serif">Jr.
            </text>
        </g>
        <g class="node" transform="translate(-143.285272799964,58.317766588790676)">
            <circle class="outline" cx="0" cy="0" r="25" fill="#C990C0" stroke="#b261a5" stroke-width="2px"/>
            <text text-anchor="middle" pointer-events="none" font-family="sans-serif" dy="1.5625" font-size="25"
                  fill="#FFFFFF"/>
            <text text-anchor="middle" pointer-events="none" font-family="sans-serif" dy="1.5625" font-size="25"
                  fill="#FFFFFF"/>
            <text text-anchor="middle" pointer-events="none" y="0" font-size="10px" fill="#FFFFFF"
                  font-family="sans-serif">Hugo
            </text>
            <text text-anchor="middle" pointer-events="none" y="10" font-size="10px" fill="#FFFFFF"
                  font-family="sans-serif">Weaving
            </text>
        </g>
        <g class="node" transform="translate(-11.049410481239503,74.54458044849441)">
            <circle class="outline" cx="0" cy="0" r="25" fill="#4C8EDA" stroke="#2870c2" stroke-width="2px"/>
            <text text-anchor="middle" pointer-events="none" font-family="sans-serif" dy="1.5625" font-size="25"
                  fill="#FFFFFF"/>
            <text text-anchor="middle" pointer-events="none" font-family="sans-serif" dy="1.5625" font-size="25"
                  fill="#FFFFFF"/>
            <text text-anchor="middle" pointer-events="none" y="0" font-size="10px" fill="#FFFFFF"
                  font-family="sans-serif">V for
            </text>
            <text text-anchor="middle" pointer-events="none" y="10" font-size="10px" fill="#FFFFFF"
                  font-family="sans-serif">Vendetta
            </text>
        </g>
        <g class="node" transform="translate(148.21837015836965,89.2555876677836)">
            <circle class="outline" cx="0" cy="0" r="25" fill="#C990C0" stroke="#b261a5" stroke-width="2px"/>
            <text text-anchor="middle" pointer-events="none" font-family="sans-serif" dy="1.5625" font-size="25"
                  fill="#FFFFFF"/>
            <text text-anchor="middle" pointer-events="none" font-family="sans-serif" dy="1.5625" font-size="25"
                  fill="#FFFFFF"/>
            <text text-anchor="middle" pointer-events="none" y="0" font-size="10px" fill="#FFFFFF"
                  font-family="sans-serif">James
            </text>
            <text text-anchor="middle" pointer-events="none" y="10" font-size="10px" fill="#FFFFFF"
                  font-family="sans-serif">Marshall
            </text>
        </g>
        <g class="node" transform="translate(-113.36720247244624,110.09471684201596)">
            <circle class="outline" cx="0" cy="0" r="25" fill="#C990C0" stroke="#b261a5" stroke-width="2px"/>
            <text text-anchor="middle" pointer-events="none" font-family="sans-serif" dy="1.5625" font-size="25"
                  fill="#FFFFFF"/>
            <text text-anchor="middle" pointer-events="none" font-family="sans-serif" dy="1.5625" font-size="25"
                  fill="#FFFFFF"/>
            <text text-anchor="middle" pointer-events="none" y="0" font-size="10px" fill="#FFFFFF"
                  font-family="sans-serif">Lilly
            </text>
            <text text-anchor="middle" pointer-events="none" y="10" font-size="10px" fill="#FFFFFF"
                  font-family="sans-serif">Wacho…
            </text>
        </g>
        <g class="node" transform="translate(-145.37429014768009,160.61302091846545)">
            <circle class="outline" cx="0" cy="0" r="25" fill="#C990C0" stroke="#b261a5" stroke-width="2px"/>
            <text text-anchor="middle" pointer-events="none" font-family="sans-serif" dy="1.5625" font-size="25"
                  fill="#FFFFFF"/>
            <text text-anchor="middle" pointer-events="none" font-family="sans-serif" dy="1.5625" font-size="25"
                  fill="#FFFFFF"/>
            <text text-anchor="middle" pointer-events="none" y="0" font-size="10px" fill="#FFFFFF"
                  font-family="sans-serif">Lana
            </text>
            <text text-anchor="middle" pointer-events="none" y="10" font-size="10px" fill="#FFFFFF"
                  font-family="sans-serif">Wacho…
            </text>
        </g>
        <g class="node" transform="translate(5.876366487708349,142.63161487024848)">
            <circle class="outline" cx="0" cy="0" r="25" fill="#4C8EDA" stroke="#2870c2" stroke-width="2px"/>
            <text text-anchor="middle" pointer-events="none" font-family="sans-serif" dy="1.5625" font-size="25"
                  fill="#FFFFFF"/>
            <text text-anchor="middle" pointer-events="none" font-family="sans-serif" dy="1.5625" font-size="25"
                  fill="#FFFFFF"/>
            <text text-anchor="middle" pointer-events="none" y="0" font-size="10px" fill="#FFFFFF"
                  font-family="sans-serif">Ninja
            </text>
            <text text-anchor="middle" pointer-events="none" y="10" font-size="10px" fill="#FFFFFF"
                  font-family="sans-serif">Assassin
            </text>
        </g>
    </g>
</svg>