<svg xmlns="http://www.w3.org/2000/svg" width="800" height="400"
     viewBox="-112.47606658935547 -0.40329623222351074 370.041748046875 193.2404327392578">
    <style>svg { background-color: white; }</style>
    <title>Neo4j Graph Visualization</title>
    <desc>Created using Neo4j (http://www.neo4j.com/)</desc>
    <g class="layer relationships">
        <g class="relationship" transform="translate(-15.588983535766602 100.60917036964415) rotate(357.9288651469901)">
            <path class="outline" fill="#A5ABB6" stroke="none"
                  d="M 12.066987298107785,21.900635094610966 L 12.933012701892222,21.400635094610966 A 125.17824973378745 125.17824973378745 0 0 0 95.7696321675618,81.35016539835418 L 95.5653560664065,82.32907871141964 A 126.17824973378745 126.17824973378745 0 0 1 12.066987298107785,21.900635094610966 Z M 141.0454232324647,83.44163881452344 L 140.8892563312641,82.45390813312825 A 125.17824973378745 125.17824973378745 0 0 0 226.55808028847113,26.62645691127357 L 224.03645556038276,25.001215781258335 L 230.77058037985475,21.01353940073656 L 229.92024659258897,28.79344508462722 L 227.3986218645006,27.168203954611982 A 126.17824973378745 126.17824973378745 0 0 1 141.0454232324647,83.44163881452344"/>
            <text text-anchor="middle" pointer-events="none" font-size="8px" fill="#000000" x="118.26706132569426"
                  y="87.45217275644056" font-family="sans-serif">ACTED_IN
            </text>
        </g>
        <g class="relationship" transform="translate(-15.588983535766602 100.60917036964415) rotate(357.9288651469901)">
            <path class="outline" fill="#A5ABB6" stroke="none"
                  d="M 21.40063509461097,12.933012701892217 L 21.90063509461097,12.06698729810778 A 198.87984375602662 198.87984375602662 0 0 0 94.36906630177447,36.874450052383 L 94.23344928719186,37.86521138860667 A 199.87984375602662 199.87984375602662 0 0 1 21.40063509461097,12.933012701892217 Z M 142.90156083401817,38.54554055335831 L 142.79369100854586,37.551375526437454 A 198.87984375602662 198.87984375602662 0 0 0 215.92723460742604,14.779275697857154 L 214.50044329692753,12.140286013094087 L 222.3226757569563,11.889927587487747 L 217.82962302142408,18.297928610874575 L 216.40283171092557,15.658938926111508 A 199.87984375602662 199.87984375602662 0 0 1 142.90156083401817,38.54554055335831"/>
            <text text-anchor="middle" pointer-events="none" font-size="8px" fill="#000000" x="118.55370810918326"
                  y="42.19235639985297" font-family="sans-serif">REVIEWED
            </text>
        </g>
        <g class="relationship" transform="translate(-15.588983535766602 100.60917036964415) rotate(357.9288651469901)">
            <path class="outline" fill="#A5ABB6" stroke="none"
                  d="M 25 0.5 L 92.76650323165755 0.5 L 92.76650323165755 -0.5 L 25 -0.5 Z M 144.54775323165757 0.5 L 212.3142564633151 0.5 L 212.3142564633151 3.5 L 219.3142564633151 0 L 212.3142564633151 -3.5 L 212.3142564633151 -0.5 L 144.54775323165757 -0.5 Z"/>
            <text text-anchor="middle" pointer-events="none" font-size="8px" fill="#000000" x="118.65712823165755" y="3"
                  font-family="sans-serif">PRODUCED
            </text>
        </g>
        <g class="relationship" transform="translate(-15.588983535766602 100.60917036964415) rotate(357.9288651469901)">
            <path class="outline" fill="#A5ABB6" stroke="none"
                  d="M 21.40063509461097,-12.933012701892217 L 21.90063509461097,-12.06698729810778 A 198.87984375602662 198.87984375602662 0 0 1 100.75567648680283,-37.64365565285249 L 100.65217238051906,-38.638284679164514 A 199.87984375602662 199.87984375602662 0 0 0 21.40063509461097,-12.933012701892217 Z M 136.46373654464566,-39.13889279322271 L 136.38807519086512,-38.14175922165663 A 198.87984375602662 198.87984375602662 0 0 1 215.92723460742604,-14.779275697857154 L 214.50044329692753,-12.140286013094087 L 222.3226757569563,-11.889927587487747 L 217.82962302142408,-18.297928610874575 L 216.40283171092557,-15.658938926111508 A 199.87984375602662 199.87984375602662 0 0 0 136.46373654464566,-39.13889279322271"/>
            <text text-anchor="middle" pointer-events="none" font-size="8px" fill="#000000" x="118.55370810918323"
                  y="-36.19235639985297" font-family="sans-serif">WROTE
            </text>
        </g>
        <g class="relationship" transform="translate(-15.588983535766602 100.60917036964415) rotate(447.9288651469901)">
            <path class="outline" fill="#A5ABB6" stroke="none"
                  d="M 6.953439040707552 24.018736134675446 L 17.306200844808384 62.65576918623819 A 17.916697508022974 17.916697508022974 0 1 1 -17.306200844808384 62.65576918623819 L -8.765172356425198 30.780216918698923 L -4.901469051268926 31.815493099109005 L -6.4704761275630185 24.148145657226706 L -11.662949835292403 30.00375978339136 L -7.79924653013613 31.039035963801442 L -16.340275018519314 62.91458823134071 A 16.916697508022974 16.916697508022974 0 1 0 16.340275018519314 62.91458823134071 L 5.987513214418485 24.277555179777966 Z"/>
            <text text-anchor="middle" pointer-events="none" font-size="8px" fill="#000000" x="0" y="94.20964923467838"
                  font-family="sans-serif">FOLLOWS
            </text>
        </g>
        <g class="relationship" transform="translate(-15.588983535766602 100.60917036964415) rotate(357.9288651469901)">
            <path class="outline" fill="#A5ABB6" stroke="none"
                  d="M 12.066987298107785,-21.900635094610966 L 12.933012701892222,-21.400635094610966 A 125.17824973378745 125.17824973378745 0 0 1 95.12251871881833,-81.21334304298351 L 94.91307308182019,-82.19116333585048 A 126.17824973378745 126.17824973378745 0 0 0 12.066987298107785,-21.900635094610966 Z M 141.7036695063022,-83.3357823750493 L 141.54228580842525,-82.34889063728899 A 125.17824973378745 125.17824973378745 0 0 1 226.55808028847113,-26.62645691127357 L 224.03645556038276,-25.001215781258335 L 230.77058037985475,-21.01353940073656 L 229.92024659258897,-28.79344508462722 L 227.3986218645006,-27.168203954611982 A 126.17824973378745 126.17824973378745 0 0 0 141.7036695063022,-83.3357823750493"/>
            <text text-anchor="middle" pointer-events="none" font-size="8px" fill="#000000" x="118.26706132569421"
                  y="-81.45217275644056" font-family="sans-serif">DIRECTED
            </text>
        </g>
    </g>
    <g class="layer nodes">
        <g class="node" transform="translate(228.5656692064386,91.77959192241916)">
            <circle class="outline" cx="0" cy="0" r="25" fill="#4C8EDA" stroke="#2870c2" stroke-width="2px"/>
            <text text-anchor="middle" pointer-events="none" font-family="sans-serif" dy="1.5625" font-size="25"
                  fill="#FFFFFF"/>
            <text text-anchor="middle" pointer-events="none" y="5" font-size="10px" fill="#FFFFFF"
                  font-family="sans-serif">Movie</text>
        </g>
        <g class="node" transform="translate(-15.588983535766602,100.60917036964415)">
            <circle class="outline" cx="0" cy="0" r="25" fill="#C990C0" stroke="#b261a5" stroke-width="2px"/>
            <text text-anchor="middle" pointer-events="none" font-family="sans-serif" dy="1.5625" font-size="25"
                  fill="#FFFFFF"/>
            <text text-anchor="middle" pointer-events="none" y="5" font-size="10px" fill="#FFFFFF"
                  font-family="sans-serif">Person
            </text>
        </g>
    </g>
</svg>